<?xml version="1.0" encoding="utf-8"?>
<!-- Generator: Adobe Illustrator 21.1.0, SVG Export Plug-In . SVG Version: 6.00 Build 0)  -->
<svg version="1.1" xmlns="http://www.w3.org/2000/svg" xmlns:xlink="http://www.w3.org/1999/xlink" x="0px" y="0px"
	 viewBox="0 0 1006.1 1006.1" style="enable-background:new 0 0 1006.1 1006.1;" xml:space="preserve">
<style type="text/css">
	.st0{fill:#ED6D47;}
	.st1{fill:#232E38;}
	.st2{fill:#FFFFFF;}
</style>
<g id="Layer_1">
	<circle class="st0" cx="503.1" cy="503.1" r="503.1"/>
	<g id="XMLID_41_">
		
			<ellipse id="XMLID_66_" transform="matrix(0.996 -8.918931e-02 8.918931e-02 0.996 -44.861 28.1826)" class="st1" cx="292.9" cy="516.1" rx="57.5" ry="74.9"/>
		
			<ellipse id="XMLID_65_" transform="matrix(9.865882e-02 -0.9951 0.9951 9.865882e-02 129.2453 1174.8434)" class="st1" cx="713.2" cy="516.1" rx="74.9" ry="57.5"/>
		<ellipse id="XMLID_64_" class="st1" cx="503.1" cy="497.4" rx="223.3" ry="286"/>
		<ellipse id="XMLID_63_" class="st2" cx="503.1" cy="499.2" rx="201.5" ry="239.5"/>
		<path id="XMLID_62_" class="st2" d="M257.4,520.7c3.1,32.6,27.3,57.1,54.1,54.9c26.8-2.2,45.9-30.4,42.8-63
			c-3.1-32.6-27.3-57.1-54.1-54.9C273.5,459.9,254.3,488.1,257.4,520.7z"/>
		<path id="XMLID_61_" class="st2" d="M650,512.1c-3.5,32.5,15.4,60.9,42.2,63.4c26.7,2.5,51.2-21.9,54.7-54.4
			c3.5-32.5-15.4-60.9-42.2-63.4C677.9,455.2,653.4,479.6,650,512.1z"/>
		<path id="XMLID_59_" class="st1" d="M652.3,297.7c-1.3-1.3-2.1-3-3.6-4.2c-15.9-11.8-58-40-145.5-39.8
			C360.3,307.6,223.8,378,288.5,520c6.8,15,27.7,14.2,29.9-2.2c1.8-13.5,2.4-26.7,2.3-33.5c0-0.5,0-1.1,0.1-1.6
			c11.4-116.4-1.9-224.3,291-172c6.2,1.1,11.1,5.9,12.3,12c8.2,41.1,17.2,46.8,25.8,49.9c5.2,1.9,9,6.3,10,11.7
			c4.5,25.5,15.1,95.8,20.6,132.9c2.2,14.9,22.3,18,28.9,4.4C735.9,467.2,710.7,356.1,652.3,297.7z"/>
		<path id="XMLID_58_" class="st1" d="M370.6,274.1c0,0,31.9-61.5,175.9-54.2c0,0,93.8,9.7,148.5,123.3c0,0-0.1,1.3,1,2.8
			c9.9,13.3,15.2,20.2,27.8,27c5.9,3.2,20.4,10.4,24.9,12.9c0,0,19.7,11.6,5.6,24.5c0,0-16.9,22.6-67.1,35.1c0,0-83,18.9-215.6-69.1
			c0,0-3.3-2.8-1.1,6.3c0,0,7.6,27.3,2.9,47.1c0,0-0.1,18.6-31.1,8.6c0,0-84.8-23.6-94.4-27.5c0,0-8.6-5.1-13.1,10.3
			c0,0-18.8,57.3-17.5,83.6c0,0-3,11.1-15.4,1.2c0,0-40.8-15.4-23.2-147.1c0,0,5.9-53.2,46.7-56.4c0,0-25.4-17.4-23-56.3
			c0,0,2.8-23.5,18-7.6c0,0,14,9.8,19.5,21.7c0,0,5.2,6.6,6.3,1.8c0,0-5.4-29.8-3.7-36.9c0,0,3.2-18.9,24.4-24.4
			c0,0,12.9-3.3,10.5,25.5L370.6,274.1z"/>
		<path id="XMLID_57_" class="st1" d="M451.2,513.8c0,27.5-13.2,42-29.5,42c-16.3,0-29.5-14.6-29.5-42c0-27.4,10.3-42.5,29.5-49.7
			C436.9,458.3,451.2,486.3,451.2,513.8z"/>
		<path id="XMLID_56_" class="st1" d="M614.1,510.6c0,27.5-13.2,42-29.5,42c-16.3,0-29.5-14.6-29.5-42c0-27.4,14.3-55.6,29.5-49.7
			C608.1,470.1,614.1,483.2,614.1,510.6z"/>
		<path id="XMLID_55_" class="st1" d="M569.1,633.8c0,10.8-33.7,34.6-66,34.6s-66-23.8-66-34.6c0-10.8,34.3,5.6,66.6,5.6
			C536.1,639.5,569.1,623.1,569.1,633.8z"/>
		<path id="XMLID_54_" class="st1" d="M657.8,675L503.9,815.5l44.6,46.5c4.1,4.5,11.2,4.7,15.5,0.4L667,757.1
			c1.2-1.2,6.6-7.7,5.3-16.2L657.8,675z"/>
		<path id="XMLID_53_" class="st1" d="M352,675l153.9,140.5L461.3,862c-4.1,4.5-11.2,4.7-15.5,0.4L342.9,757.1
			c-1.2-1.2-6.6-7.7-5.3-16.2L352,675z"/>
		<path id="XMLID_1_" class="st1" d="M284,209c-0.3-27.6,22.3-45.3,49.3-50.5c80.9-15.6,225.5-15,302.2-3.4
			c27.3,4.1,50.2,21.8,50.5,49.3l0.9,68.5l0.5,43.5c0.3,27.6-22.7,57.4-49.3,50.5c-71.1-18.4-223.6-18.9-302.2,3.4
			c-26.5,7.5-50.2-21.8-50.5-49.3L284,209z"/>
		<path id="XMLID_43_" class="st2" d="M285,292.9c0,0,107.4,30.3,192.6-12.8c0,0,36.8-15.9,49-37.2c0,0,13.8-27.4-9.5-45.4
			c0,0-14-10.7-26.6-5.8c0,0-16.2,4.9-14.6,29.9c0,0-1.3,28.6,11.5,45c0,0,26,35.3,81.7,40c0,0,62.8,8.4,117.9-12.8l0.2,17.8
			c0,0-125.5,41.6-197.5-19.5c0,0-34.4-23.6-29.7-78.9c0,0-0.4-36.6,38.9-39c0,0,37.2-1.5,46.4,39.6c0,0,11.6,39-34.1,66.3
			c0,0-83.8,73-226.1,44.4L285,292.9z"/>
		<path class="st1" d="M285.1,299.1"/>
		<path class="st1" d="M285.1,299.1"/>
		<path class="st1" d="M285.1,299.1"/>
	</g>
</g>
<g id="Layer_2">
</g>
</svg>
