<?xml version="1.0" encoding="utf-8"?>
<!-- Generator: Adobe Illustrator 21.0.2, SVG Export Plug-In . SVG Version: 6.00 Build 0)  -->
<svg version="1.1" id="Layer_1" xmlns="http://www.w3.org/2000/svg" xmlns:xlink="http://www.w3.org/1999/xlink" x="0px" y="0px"
	 viewBox="0 0 320 59" style="enable-background:new 0 0 320 59;" xml:space="preserve">
<style type="text/css">
	.st0{fill:#4B575F;}
	.st1{fill:#F08428;}
	.st2{fill:#949CA1;}
</style>
<title>iTFE horiz MASTER</title>
<polygon class="st0" points="47.7,14.4 47.7,57 34.2,57 34.2,14.4 21.3,14.4 21.3,2.9 60.5,2.9 60.5,14.4 "/>
<polygon class="st0" points="138.8,14.4 116.8,14.4 116.8,23.7 135,23.7 135,35.2 116.8,35.2 116.8,45.5 138.8,45.5 138.8,57 
	103.4,57 103.4,2.9 138.8,2.9 "/>
<polygon class="st0" points="77.7,57 64.3,57 64.3,2.9 99.7,2.9 99.7,14.4 77.7,14.4 77.7,23.7 95.9,23.7 95.9,35.2 77.7,35.2 "/>
<path class="st1" d="M11.5,1c3.9,0,6,2,6,5.7c0,4.9-2.4,7.3-7.1,7.3c-4,0-6-2-6-5.7C4.4,3.6,6.6,1,11.5,1 M16.1,27.6l-1.7,20.1
	c-0.2,1.7,0.3,2.4,1.5,2.4h2.6c0.3,0.8,0.4,1.6,0.4,2.5c0,3.9-2.5,6.1-9,6.1c-5.4,0-8-2-7.3-9.1l1.7-18.8c0.2-2-0.7-2.5-1.7-2.5H0.3
	c-0.3-0.9-0.4-1.8-0.3-2.7C0,20,3.2,18,8.5,18C12.9,18,16.9,19.4,16.1,27.6"/>
<rect x="150.1" y="23.7" class="st0" width="1.3" height="12.1"/>
<polygon class="st0" points="161.5,35.7 155.1,26.1 155.1,35.7 153.8,35.7 153.8,23.7 155,23.7 161.4,33.3 161.4,23.7 162.7,23.7 
	162.7,35.7 "/>
<path class="st0" d="M168.6,35.8c-1.6,0.1-3.1-0.5-4.2-1.6l0.9-0.9c0.8,0.9,2.1,1.4,3.3,1.3c1.8,0,2.8-0.8,2.8-2.2
	c0-0.6-0.2-1.1-0.6-1.5c-0.4-0.4-1-0.6-1.6-0.6l-1.4-0.2c-0.8-0.1-1.6-0.4-2.2-0.9c-0.6-0.6-1-1.4-0.9-2.3c0-2.1,1.5-3.4,3.9-3.4
	c1.3-0.1,2.6,0.4,3.6,1.3l-0.8,0.8c-0.8-0.7-1.8-1.1-2.8-1c-1.6,0-2.5,0.9-2.5,2.2c-0.1,0.5,0.1,1,0.5,1.4c0.5,0.4,1.1,0.6,1.7,0.7
	l1.3,0.2c0.8,0,1.6,0.3,2.2,0.8c0.7,0.6,1.1,1.5,1,2.4C172.8,34.5,171.1,35.8,168.6,35.8"/>
<polygon class="st0" points="178.5,24.8 178.5,35.7 177.2,35.7 177.2,24.8 173.7,24.8 173.7,23.7 182,23.7 182,24.8 "/>
<rect x="183.6" y="23.7" class="st0" width="1.3" height="12.1"/>
<polygon class="st0" points="191.2,24.8 191.2,35.7 190,35.7 190,24.8 186.5,24.8 186.5,23.7 194.7,23.7 194.7,24.8 "/>
<path class="st0" d="M200.5,35.8c-2.2,0.1-4.1-1.6-4.2-3.8c0-0.1,0-0.2,0-0.3v-8.1h1.3v8c-0.2,1.6,0.9,3.1,2.5,3.3
	c1.6,0.2,3.1-0.9,3.3-2.5c0-0.3,0-0.5,0-0.8v-8h1.4v8.1c0,2.2-1.7,4-3.9,4.1C200.7,35.9,200.6,35.9,200.5,35.8"/>
<polygon class="st0" points="211,24.8 211,35.7 209.7,35.7 209.7,24.8 206.2,24.8 206.2,23.7 214.5,23.7 214.5,24.8 "/>
<polygon class="st0" points="216.1,35.7 216.1,23.7 223.6,23.7 223.6,24.8 217.4,24.8 217.4,29.1 222.7,29.1 222.7,30.2 217.4,30.2 
	217.4,34.6 223.6,34.6 223.6,35.7 "/>
<path class="st0" d="M234.7,25.6c-1.2-1.1-3-1.1-4.2,0c-0.8,0.8-0.8,1.6-0.8,4.2c0,2.5,0.1,3.3,0.8,4.2c1.1,1.1,3,1.1,4.2,0
	c0.8-0.8,0.8-1.6,0.8-4.2S235.5,26.4,234.7,25.6 M235.7,34.6c-1.7,1.7-4.5,1.7-6.2,0c-1.1-1.1-1.1-2.3-1.1-4.9s0-3.8,1.1-4.9
	c1.7-1.7,4.5-1.7,6.2,0c1.1,1.1,1.1,2.3,1.1,4.9S236.9,33.5,235.7,34.6"/>
<polygon class="st0" points="240.3,24.8 240.3,29.3 245.6,29.3 245.6,30.4 240.3,30.4 240.3,35.7 239,35.7 239,23.7 246.5,23.7 
	246.5,24.8 "/>
<polygon class="st0" points="255,24.8 255,35.7 253.7,35.7 253.7,24.8 250.2,24.8 250.2,23.7 258.5,23.7 258.5,24.8 "/>
<path class="st0" d="M264.6,24.8h-3.2v4.4h3.2c1.4,0,2.4-0.7,2.4-2.2C267,25.6,266,24.8,264.6,24.8 M267,35.8l-2.7-5.4h-2.9v5.4
	h-1.3V23.7h4.6c2.1,0,3.6,1.3,3.6,3.3c0.1,1.6-1.1,3-2.6,3.2l2.9,5.5L267,35.8z"/>
<path class="st0" d="M274.6,25.5l-2.3,6.4h4.5L274.6,25.5z M278.2,35.7l-1-2.7H272l-1,2.7h-1.4l4.4-12.1h1.1l4.4,12.1L278.2,35.7z"
	/>
<rect x="281" y="23.7" class="st0" width="1.3" height="12.1"/>
<polygon class="st0" points="292.4,35.7 286,26.1 286,35.7 284.8,35.7 284.8,23.7 286,23.7 292.4,33.3 292.4,23.7 293.7,23.7 
	293.7,35.7 "/>
<rect x="296.2" y="23.7" class="st0" width="1.3" height="12.1"/>
<polygon class="st0" points="307.6,35.7 301.2,26.1 301.2,35.7 299.9,35.7 299.9,23.7 301.1,23.7 307.5,33.3 307.5,23.7 308.8,23.7 
	308.8,35.7 "/>
<path class="st0" d="M318.4,34.5c-1.7,1.8-4.5,1.9-6.3,0.2c0,0,0,0,0,0c-1.1-1.1-1.1-2.3-1.1-4.9s0-3.8,1.1-4.9
	c0.8-0.8,1.9-1.3,3.1-1.3c2.1-0.1,3.9,1.5,4.2,3.6h-1.3c-0.2-1.5-1.5-2.5-2.9-2.5c-0.8,0-1.5,0.3-2.1,0.8c-0.8,0.8-0.8,1.6-0.8,4.2
	c0,2.6,0.1,3.3,0.8,4.2c0.6,0.5,1.3,0.8,2.1,0.8c0.9,0,1.7-0.4,2.3-1c0.5-0.6,0.7-1.4,0.7-2.2v-0.9h-3v-1.1h4.3v1.9
	C319.5,32.5,319.1,33.6,318.4,34.5"/>
<polygon class="st0" points="155.6,51.6 155.6,56 154.5,56 154.5,51.6 150.1,51.6 150.1,50.5 154.5,50.5 154.5,46.1 155.6,46.1 
	155.6,50.5 160,50.5 160,51.6 "/>
<polygon class="st0" points="166.8,46 166.8,50.5 172.1,50.5 172.1,51.6 166.8,51.6 166.8,57 165.5,57 165.5,44.9 173,44.9 173,46 
	"/>
<path class="st0" d="M178.7,57.1c-2.2,0.1-4.1-1.6-4.2-3.8c0-0.1,0-0.2,0-0.3v-8.1h1.3v8c0,1.6,1.3,2.9,2.9,2.9s2.9-1.3,2.9-2.9
	c0,0,0,0,0,0v-8h1.3V53c0,2.2-1.7,4-3.9,4.1C179,57.1,178.9,57.1,178.7,57.1"/>
<path class="st0" d="M189.8,46h-3.2v4.4h3.2c1.4,0,2.4-0.7,2.4-2.2C192.2,46.8,191.2,46,189.8,46 M192.3,57l-2.7-5.4h-2.9V57h-1.3
	V44.9h4.6c2.1,0,3.6,1.3,3.6,3.3c0.1,1.6-1.1,3-2.6,3.2l2.9,5.5L192.3,57z"/>
<polygon class="st0" points="199.4,46 199.4,57 198.1,57 198.1,46 194.6,46 194.6,44.9 202.9,44.9 202.9,46 "/>
<polygon class="st0" points="211.5,57 211.5,51.5 205.8,51.5 205.8,57 204.5,57 204.5,44.9 205.8,44.9 205.8,50.3 211.5,50.3 
	211.5,44.9 212.8,44.9 212.8,57 "/>
<polygon class="st0" points="215.3,57 215.3,44.9 222.8,44.9 222.8,46 216.6,46 216.6,50.3 221.9,50.3 221.9,51.5 216.6,51.5 
	216.6,55.8 222.8,55.8 222.8,57 "/>
<path class="st0" d="M229.1,46h-3.2v4.4h3.2c1.4,0,2.4-0.7,2.4-2.2C231.5,46.8,230.5,46,229.1,46 M231.5,57l-2.7-5.4h-2.9V57h-1.3
	V44.9h4.6c2.1,0,3.6,1.3,3.6,3.3c0.1,1.6-1.1,3-2.6,3.2l2.9,5.5L231.5,57z"/>
<polygon class="st0" points="238.3,57 238.3,44.9 245.8,44.9 245.8,46 239.6,46 239.6,50.3 244.9,50.3 244.9,51.5 239.6,51.5 
	239.6,55.8 245.8,55.8 245.8,57 "/>
<path class="st0" d="M253.9,46.9c-0.6-0.6-1.5-0.9-2.4-0.9h-2.6v9.8h2.6c0.9,0,1.7-0.3,2.4-0.9c0.8-0.8,0.8-2.7,0.8-4.2
	C254.8,49.3,254.8,47.8,253.9,46.9 M254.8,55.8c-0.8,0.8-1.9,1.2-3.1,1.1h-4.2V44.9h4.2c1.1,0,2.2,0.4,3.1,1.1
	c1.3,1.3,1.2,3.1,1.2,4.8C256,52.5,256.1,54.6,254.8,55.8"/>
<path class="st0" d="M262.2,57.1c-2.2,0.1-4.1-1.6-4.2-3.8c0-0.1,0-0.2,0-0.3v-8.1h1.3v8c0,1.6,1.3,2.9,2.9,2.9s2.9-1.3,2.9-2.9
	c0,0,0,0,0,0v-8h1.3V53c0,2.2-1.7,4-3.9,4.1C262.4,57.1,262.3,57.1,262.2,57.1"/>
<path class="st0" d="M272.6,57.1c-1.2,0-2.3-0.4-3.1-1.3c-1.1-1.1-1.1-2.3-1.1-4.9c0-2.6,0-3.8,1.1-4.9c0.8-0.8,1.9-1.3,3.1-1.3
	c2.1-0.1,3.9,1.5,4.2,3.6h-1.3c-0.2-1.4-1.4-2.5-2.9-2.4c-0.8,0-1.5,0.3-2.1,0.8c-0.8,0.8-0.8,1.7-0.8,4.2s0.1,3.3,0.8,4.2
	c1.2,1.1,3,1.1,4.2-0.1c0.4-0.4,0.7-1,0.8-1.5h1.3C276.6,55.6,274.7,57.2,272.6,57.1"/>
<path class="st0" d="M282.4,46.7l-2.3,6.4h4.5L282.4,46.7z M286,57l-1-2.7h-5.3l-1,2.7h-1.4l4.4-12.1h1.1l4.4,12.1H286z"/>
<polygon class="st0" points="291.3,46 291.3,57 290,57 290,46 286.5,46 286.5,44.9 294.8,44.9 294.8,46 "/>
<rect x="296.4" y="44.9" class="st0" width="1.3" height="12.1"/>
<path class="st0" d="M306.1,46.8c-1.2-1.1-3-1.1-4.2,0c-0.8,0.8-0.8,1.6-0.8,4.2s0.1,3.3,0.8,4.2c1.2,1.1,3,1.1,4.2,0
	c0.8-0.8,0.8-1.6,0.8-4.2S306.8,47.6,306.1,46.8 M307.1,55.8c-1.7,1.7-4.5,1.7-6.2,0c-1.1-1.1-1.1-2.3-1.1-4.9s0-3.8,1.1-4.9
	c1.7-1.7,4.5-1.7,6.2,0c1.1,1.1,1.1,2.3,1.1,4.9S308.2,54.7,307.1,55.8"/>
<polygon class="st0" points="318,57 311.6,47.3 311.6,57 310.3,57 310.3,44.9 311.6,44.9 318,54.5 318,44.9 319.3,44.9 319.3,57 "/>
<polygon class="st2" points="61.7,34.6 72.6,34.6 72.6,46 61.7,46 61.7,57 50.3,57 50.3,46 39.3,46 39.3,34.6 50.3,34.6 50.3,23.7 
	61.7,23.7 "/>
</svg>
