<?xml version="1.0" encoding="utf-8"?>
<!-- Generator: Adobe Illustrator 21.1.0, SVG Export Plug-In . SVG Version: 6.00 Build 0)  -->
<svg version="1.1" id="Layer_1" xmlns="http://www.w3.org/2000/svg" xmlns:xlink="http://www.w3.org/1999/xlink" x="0px" y="0px"
	 viewBox="0 0 697.3 697.3" style="enable-background:new 0 0 697.3 697.3;" xml:space="preserve">
<style type="text/css">
	.st0{fill:#FFFFFF;}
	.st1{fill:#CCCCCC;}
	.st2{fill:#008BCE;}
	.st3{fill:none;}
</style>
<g>
	<path class="st0" d="M348.7,691.2c-91.5,0-177.5-35.6-242.2-100.3C41.8,526.2,6.1,440.1,6.1,348.7c0-91.5,35.6-177.5,100.3-242.2
		S257.2,6.2,348.7,6.2c91.5,0,177.5,35.6,242.2,100.3c64.7,64.7,100.3,150.7,100.3,242.2c0,91.5-35.6,177.5-100.3,242.2
		C526.2,655.5,440.1,691.2,348.7,691.2z"/>
	<path class="st1" d="M348.7,12.3c45.4,0,89.5,8.9,130.9,26.4c40.1,16.9,76,41.2,106.9,72.1c30.9,30.9,55.1,66.9,72.1,106.9
		c17.5,41.5,26.4,85.5,26.4,130.9s-8.9,89.5-26.4,130.9c-16.9,40.1-41.2,76-72.1,106.9c-30.9,30.9-66.9,55.1-106.9,72.1
		c-41.5,17.5-85.5,26.4-130.9,26.4s-89.5-8.9-130.9-26.4c-40.1-16.9-76-41.2-106.9-72.1s-55.1-66.9-72.1-106.9
		c-17.5-41.5-26.4-85.5-26.4-130.9s8.9-89.5,26.4-130.9c16.9-40.1,41.2-76,72.1-106.9s66.9-55.1,106.9-72.1
		C259.2,21.2,303.2,12.3,348.7,12.3 M348.7,0C156.1,0,0,156.1,0,348.7s156.1,348.7,348.7,348.7s348.7-156.1,348.7-348.7
		S541.2,0,348.7,0L348.7,0z"/>
</g>
<g>
	<g>
		<path class="st2" d="M356.2,460.6c-7.6,0.5-13.3,7.1-13.3,14.7l0,30.8l28.5-0.1l0-31.2C371.4,466.6,364.5,460.1,356.2,460.6z"/>
		<path class="st2" d="M418.1,173.9c-66.9,0-124.4,39.6-150.8,96.6c-10.8-3.2-22.1-4.9-33.9-4.9C166.9,265.6,113,319.5,113,386
			c0,66.5,53.9,120.4,120.4,120.4h52.2l0.8,0c-9-6.8-14.9-17.6-14.9-29.7v-41.6c-6.3-3.8-11.4-9.6-14.4-16.8
			c-5.4-13.3-2.4-28.4,7.8-38.4l67.6-66.7c6.6-6.6,15.4-10.2,24.8-10.2c9.3,0,18.1,3.6,24.8,10.2l67.5,66.7
			c10.2,10.1,13.3,25.2,7.8,38.4c-3,7.2-8.1,13-14.4,16.8v45c0,10.3-4.6,19.4-11.8,25.6l1.5,0c85-7.3,151.8-78.6,151.8-165.6
			C584.3,248.3,509.9,173.9,418.1,173.9z"/>
		<path class="st3" d="M442.9,480.1v-45c6.3-3.8,11.4-9.6,14.4-16.8c5.4-13.3,2.4-28.4-7.8-38.4l-67.5-66.7
			c-6.6-6.6-15.4-10.2-24.8-10.2c-9.3,0-18.1,3.6-24.8,10.2l-67.6,66.7c-10.2,10.1-13.3,25.2-7.8,38.4c3,7.2,8.1,13,14.4,16.8v41.6
			c0,12.1,5.9,22.9,14.9,29.7l56.6-0.3l0-30.8c0-7.6,5.7-14.2,13.3-14.7c8.3-0.5,15.2,6,15.2,14.2l0,31.2l59.7-0.3
			C438.3,499.5,442.9,490.4,442.9,480.1z"/>
	</g>
</g>
</svg>
