<svg width="122" height="30" viewBox="0 0 122 30" fill="none" xmlns="http://www.w3.org/2000/svg">
<g clip-path="url(#clip0)">
<path fill-rule="evenodd" clip-rule="evenodd" d="M107.577 16.9487C107.577 15.5555 107.9 14.2738 108.547 13.1035C109.193 11.9332 110.067 11.009 111.168 10.331C112.269 9.65298 113.458 9.31396 114.734 9.31396C115.852 9.31396 116.905 9.57868 117.893 10.1081C118.88 10.6375 119.71 11.362 120.383 12.2815C121.056 13.201 121.506 14.2366 121.733 15.3883C121.856 15.9456 121.917 16.4844 121.917 17.0045C121.917 17.462 121.873 17.904 121.786 18.3306C121.771 18.4026 121.709 18.4533 121.637 18.4533H111.525C111.424 18.4533 111.35 18.5507 111.38 18.6493C111.523 19.1214 111.741 19.5251 112.033 19.8605C112.366 20.2413 112.763 20.5246 113.226 20.7103C113.689 20.8961 114.192 20.9889 114.734 20.9889C115.328 20.9889 115.918 20.8822 116.503 20.6686C117.059 20.4658 117.539 20.1756 117.945 19.7975C117.986 19.7594 118.043 19.745 118.096 19.7612L121.14 20.6855C121.231 20.7131 121.277 20.8178 121.233 20.9038C120.684 21.9789 119.811 22.8478 118.614 23.5107C117.355 24.2073 116.062 24.5556 114.734 24.5556C113.423 24.5556 112.217 24.2119 111.116 23.5246C110.015 22.8373 109.15 21.9085 108.521 20.7382C107.891 19.5679 107.577 18.3047 107.577 16.9487ZM111.396 15.1843C111.358 15.2841 111.433 15.3883 111.537 15.3883H117.851C117.956 15.3883 118.03 15.2841 117.993 15.1843C117.853 14.8157 117.653 14.4704 117.395 14.1484C117.089 13.7676 116.709 13.4611 116.254 13.2289C115.8 12.9967 115.284 12.8806 114.707 12.8806C114.131 12.8806 113.611 12.9967 113.148 13.2289C112.684 13.4611 112.3 13.7676 111.994 14.1484C111.735 14.4704 111.536 14.8157 111.396 15.1843Z" fill="#0E2151"/>
<path fill-rule="evenodd" clip-rule="evenodd" d="M55.5493 16.9487C55.5493 15.5555 55.8596 14.2738 56.4799 13.1035C57.1004 11.9332 57.935 11.009 58.9837 10.331C60.0323 9.65298 61.1771 9.31396 62.4179 9.31396C63.187 9.31396 63.8904 9.44401 64.5284 9.70406C65.0567 9.91944 65.5401 10.2113 65.9783 10.5795C66.0827 10.6671 66.2455 10.5936 66.2455 10.4556V9.72264C66.2455 9.63544 66.3147 9.56475 66.3999 9.56475H69.8924C69.9776 9.56475 70.0468 9.63544 70.0468 9.72264V24.1748C70.0468 24.2619 69.9776 24.3327 69.8924 24.3327H66.3999C66.3147 24.3327 66.2455 24.2619 66.2455 24.1748V23.4602C66.2455 23.3236 66.0858 23.2497 65.9811 23.3345C65.5419 23.6896 65.0578 23.9713 64.5284 24.1794C63.8904 24.4301 63.187 24.5556 62.4179 24.5556C61.1945 24.5556 60.0541 24.2073 58.9967 23.5107C57.9393 22.814 57.1004 21.8853 56.4799 20.7243C55.8596 19.5633 55.5493 18.3047 55.5493 16.9487ZM59.0886 16.9487C59.0886 17.6545 59.2501 18.3093 59.5735 18.9131C59.8968 19.5169 60.3381 19.9997 60.8974 20.3621C61.4568 20.7243 62.0859 20.9054 62.785 20.9054C63.4491 20.9054 64.0652 20.7243 64.6332 20.3621C65.2012 19.9997 65.6556 19.5122 65.9964 18.8992C66.3372 18.2861 66.5076 17.636 66.5076 16.9487C66.5076 16.2614 66.3372 15.6112 65.9964 14.9982C65.6556 14.3852 65.2012 13.8929 64.6332 13.5214C64.0652 13.1499 63.4491 12.9641 62.785 12.9641C62.1034 12.9641 61.4785 13.1453 60.9105 13.5075C60.3425 13.8697 59.8968 14.3573 59.5735 14.9704C59.2501 15.5834 59.0886 16.2428 59.0886 16.9487Z" fill="#0E2151"/>
<path fill-rule="evenodd" clip-rule="evenodd" d="M33.5529 9.99765C33.5319 9.89922 33.6053 9.80615 33.7038 9.80615H37.1587C37.2332 9.80615 37.2971 9.86048 37.3107 9.93536L39.0624 19.6275C39.093 19.7969 39.3289 19.801 39.3651 19.6329L41.4551 9.93008C41.4707 9.85771 41.5334 9.80615 41.606 9.80615H45.9192C45.9917 9.80615 46.0545 9.85775 46.0701 9.93016L48.1591 19.6537C48.1952 19.8222 48.4317 19.8178 48.4618 19.6482L50.1886 9.9358C50.2021 9.86072 50.266 9.80615 50.3406 9.80615H53.8214C53.92 9.80615 53.9932 9.89922 53.9723 9.99765L50.8936 24.4498C50.8782 24.5224 50.8153 24.574 50.7427 24.574H46.0649C45.9914 24.574 45.928 24.5211 45.9135 24.4474L43.914 14.3076C43.8806 14.1387 43.6445 14.1387 43.6113 14.3076L41.6117 24.4474C41.5972 24.5211 41.5337 24.574 41.4602 24.574H36.7825C36.7098 24.574 36.6471 24.5224 36.6316 24.4498L33.5529 9.99765Z" fill="#0E2151"/>
<path fill-rule="evenodd" clip-rule="evenodd" d="M74.7421 9.58541C74.8275 9.58541 74.8965 9.51472 74.8965 9.42752V5.39538C74.8965 5.30863 74.9651 5.23811 75.0498 5.2375L78.4899 5.21192C78.5757 5.21129 78.6455 5.28217 78.6455 5.36981V9.42752C78.6455 9.51472 78.7146 9.58541 78.7999 9.58541H82.5021C82.5873 9.58541 82.6565 9.6561 82.6565 9.74331V12.9105C82.6565 12.9977 82.5873 13.0684 82.5021 13.0684H78.7999C78.7146 13.0684 78.6455 13.1391 78.6455 13.2263V19.3935C78.6455 19.7837 78.8028 20.1179 79.1174 20.3966C79.432 20.6753 79.7552 20.8193 80.0874 20.8284C80.4194 20.8378 80.6029 20.8425 80.6379 20.8425C81.1982 20.8425 81.8612 20.6944 82.6268 20.3982C82.7292 20.3586 82.8399 20.435 82.8399 20.5469V24.0967C82.8399 24.1663 82.7955 24.2279 82.7301 24.2473C81.8094 24.5224 80.9372 24.6598 80.1135 24.6598C79.6766 24.6598 79.0562 24.5856 78.2523 24.437C77.4483 24.2882 76.6881 23.7774 75.9715 22.9044C75.2548 22.0313 74.8965 20.8703 74.8965 19.4214V13.2263C74.8965 13.1391 74.8275 13.0684 74.7421 13.0684H72.6915C72.6063 13.0684 72.5371 12.9977 72.5371 12.9105V9.74331C72.5371 9.6561 72.6063 9.58541 72.6915 9.58541H74.7421Z" fill="#0E2151"/>
<path fill-rule="evenodd" clip-rule="evenodd" d="M87.5595 9.58541C87.6449 9.58541 87.7139 9.51472 87.7139 9.42752V5.39538C87.7139 5.30863 87.7825 5.23811 87.8672 5.2375L91.3073 5.21192C91.393 5.21129 91.4628 5.28217 91.4628 5.36981V9.42752C91.4628 9.51472 91.532 9.58541 91.6173 9.58541H95.3194C95.4047 9.58541 95.4739 9.6561 95.4739 9.74331V12.9105C95.4739 12.9977 95.4047 13.0684 95.3194 13.0684H91.6173C91.532 13.0684 91.4628 13.1391 91.4628 13.2263V19.3935C91.4628 19.7837 91.6202 20.1179 91.9348 20.3966C92.2494 20.6753 92.5726 20.8193 92.9048 20.8284C93.2368 20.8378 93.4202 20.8425 93.4553 20.8425C94.0156 20.8425 94.6785 20.6944 95.4442 20.3982C95.5466 20.3586 95.6573 20.435 95.6573 20.5469V24.0967C95.6573 24.1663 95.6128 24.2279 95.5475 24.2473C94.6268 24.5224 93.7546 24.6598 92.9309 24.6598C92.494 24.6598 91.8736 24.5856 91.0697 24.437C90.2657 24.2882 89.5054 23.7774 88.7889 22.9044C88.0722 22.0313 87.7139 20.8703 87.7139 19.4214V13.2263C87.7139 13.1391 87.6449 13.0684 87.5595 13.0684H85.5089C85.4237 13.0684 85.3545 12.9977 85.3545 12.9105V9.74331C85.3545 9.6561 85.4237 9.58541 85.5089 9.58541H87.5595Z" fill="#0E2151"/>
<path fill-rule="evenodd" clip-rule="evenodd" d="M98.1729 9.58541V5.39538C98.1729 5.30863 98.2413 5.23811 98.3262 5.2375L101.766 5.21192C101.852 5.21129 101.922 5.28217 101.922 5.36981V9.58541V13.0684V19.3935C101.922 19.7837 102.079 20.1179 102.394 20.3966C102.708 20.6753 103.032 20.8193 103.364 20.8284C103.696 20.8378 103.879 20.8425 103.914 20.8425C104.475 20.8425 105.138 20.6944 105.903 20.3982C106.006 20.3586 106.116 20.435 106.116 20.5469V24.0967C106.116 24.1663 106.072 24.2279 106.006 24.2473C105.086 24.5224 104.214 24.6598 103.39 24.6598C102.953 24.6598 102.332 24.5856 101.528 24.437C100.725 24.2882 99.9642 23.7774 99.2477 22.9044C98.5311 22.0313 98.1729 20.8703 98.1729 19.4214V13.0684V9.58541Z" fill="#0E2151"/>
<path d="M3.3367 4.75783C3.22857 4.82164 3.19154 4.96294 3.25396 5.07345L4.72336 7.67462C6.03429 9.99526 8.93769 10.7904 11.2083 9.45056C13.4789 8.11073 14.2569 5.14333 12.9459 2.82269L11.4765 0.221518C11.4141 0.111011 11.2758 0.0731483 11.1677 0.13695C9.00524 1.41297 8.24549 4.20572 9.49399 6.41585C8.24549 4.20572 5.49917 3.48182 3.3367 4.75783Z" fill="#574CFF"/>
<path d="M25.4086 25.3479C25.5168 25.2841 25.5537 25.1428 25.4913 25.0323L24.0219 22.4311C22.711 20.1105 19.8077 19.3154 17.5371 20.6553C15.2664 21.995 14.4885 24.9625 15.7994 27.2831L17.2688 29.8842C17.3312 29.9948 17.4694 30.0326 17.5775 29.9689C19.74 28.6928 20.4998 25.9001 19.2513 23.6899C20.4998 25.9001 23.2461 26.624 25.4086 25.3479Z" fill="#574CFF"/>
<path d="M2.39242e-07 19.5681C2.37463e-07 19.6957 0.101212 19.7991 0.226063 19.7991H3.16487C5.78674 19.7991 7.91218 17.6268 7.91218 14.9471C7.91218 12.2675 5.78674 10.0952 3.16487 10.0952H0.226063C0.101212 10.0952 -1.24924e-09 10.1987 0 10.3263C3.15135e-08 12.8783 1.98655 14.9471 4.48356 14.9471C1.98655 14.9471 2.07727e-07 17.016 2.39242e-07 19.5681Z" fill="#574CFF"/>
<path d="M28.4839 10.3263C28.4839 10.1987 28.3827 10.0952 28.2579 10.0952H25.3191C22.6972 10.0952 20.5718 12.2675 20.5718 14.9471C20.5718 17.6268 22.6972 19.7991 25.3191 19.7991H28.2579C28.3827 19.7991 28.4839 19.6957 28.4839 19.5681C28.4839 17.016 26.4974 14.9471 24.0004 14.9471C26.4974 14.9471 28.4839 12.8783 28.4839 10.3263Z" fill="#574CFF"/>
<path d="M11.0364 29.8634C11.1445 29.9272 11.2828 29.8893 11.3452 29.7788L12.8146 27.1776C14.1255 24.857 13.3475 21.8895 11.077 20.5498C8.80635 19.2099 5.90295 20.0051 4.59202 22.3257L3.12262 24.9268C3.06018 25.0373 3.09723 25.1787 3.20536 25.2424C5.36783 26.5185 8.11415 25.7946 9.36265 23.5845C8.11415 25.7946 8.8739 28.5874 11.0364 29.8634Z" fill="#574CFF"/>
<path d="M17.4478 0.0309925C17.3397 -0.0328086 17.2013 0.00505437 17.1389 0.115561L15.6695 2.71674C14.3586 5.03738 15.1366 8.00477 17.4072 9.34461C19.6778 10.6844 22.5812 9.88931 23.8922 7.56867L25.3616 4.96749C25.4239 4.85698 25.3869 4.71568 25.2788 4.65188C23.1163 3.37585 20.3699 4.09975 19.1215 6.3099C20.3699 4.09975 19.6103 1.30701 17.4478 0.0309925Z" fill="#574CFF"/>
</g>
<defs>
<clipPath id="clip0">
<rect width="122" height="30" fill="white"/>
</clipPath>
</defs>
</svg>
